<svg width="160" height="160" viewBox="0 0 160 160" fill="none" xmlns="http://www.w3.org/2000/svg">
  <rect width="160" height="160" rx="80" fill="#EAFBFD"/>
  <circle cx="80" cy="80" r="66" fill="url(#bg2)"/>
  <path d="M46 132C54 110 66 101 80 101C94 101 106 110 114 132" fill="#89C9D4"/>
  <ellipse cx="80" cy="67" rx="28" ry="33" fill="#F4C9B4"/>
  <path d="M52 68C52 45 65 28 81 28C97 28 108 42 108 67C103 61 97 58 90 58C78 58 69 66 61 71L52 68Z" fill="#1A3040"/>
  <circle cx="69" cy="68" r="3.2" fill="#213946"/>
  <circle cx="91" cy="68" r="3.2" fill="#213946"/>
  <path d="M71 84C75 88 85 88 89 84" stroke="#D07D70" stroke-width="3.2" stroke-linecap="round"/>
  <defs>
    <linearGradient id="bg2" x1="20" y1="25" x2="138" y2="138" gradientUnits="userSpaceOnUse">
      <stop stop-color="#26B7C8"/>
      <stop offset="1" stop-color="#178496"/>
    </linearGradient>
  </defs>
</svg>
